<?xml version="1.0" encoding="UTF-8" standalone="no"?>
<!-- Generator: Adobe Illustrator 19.0.0, SVG Export Plug-In . SVG Version: 6.00 Build 0)  -->

<svg
   xmlns:dc="http://purl.org/dc/elements/1.1/"
   xmlns:cc="http://creativecommons.org/ns#"
   xmlns:rdf="http://www.w3.org/1999/02/22-rdf-syntax-ns#"
   xmlns:svg="http://www.w3.org/2000/svg"
   xmlns="http://www.w3.org/2000/svg"
   xmlns:sodipodi="http://sodipodi.sourceforge.net/DTD/sodipodi-0.dtd"
   xmlns:inkscape="http://www.inkscape.org/namespaces/inkscape"
   version="1.1"
   id="Layer_1"
   x="0px"
   y="0px"
   viewBox="0 0 512 512"
   style="enable-background:new 0 0 512 512;"
   xml:space="preserve"
   inkscape:version="0.91 r13725"
   sodipodi:docname="whatsapp.svg"><metadata
     id="metadata43"><rdf:RDF><cc:Work
         rdf:about=""><dc:format>image/svg+xml</dc:format><dc:type
           rdf:resource="http://purl.org/dc/dcmitype/StillImage" /></cc:Work></rdf:RDF></metadata><defs
     id="defs41" /><sodipodi:namedview
     pagecolor="#ffffff"
     bordercolor="#666666"
     borderopacity="1"
     objecttolerance="10"
     gridtolerance="10"
     guidetolerance="10"
     inkscape:pageopacity="0"
     inkscape:pageshadow="2"
     inkscape:window-width="1680"
     inkscape:window-height="1026"
     id="namedview39"
     showgrid="false"
     inkscape:zoom="0.921875"
     inkscape:cx="260.65736"
     inkscape:cy="274.02783"
     inkscape:window-x="0"
     inkscape:window-y="24"
     inkscape:window-maximized="1"
     inkscape:current-layer="Layer_1" /><path
     style="fill:#ffffff"
     d="M0,512l35.31-128C12.359,344.276,0,300.138,0,254.234C0,114.759,114.759,0,255.117,0  S512,114.759,512,254.234S395.476,512,255.117,512c-44.138,0-86.51-14.124-124.469-35.31L0,512z"
     id="path3" /><path
     style="fill:#55CD6C;"
     d="M137.71,430.786l7.945,4.414c32.662,20.303,70.621,32.662,110.345,32.662  c115.641,0,211.862-96.221,211.862-213.628S371.641,44.138,255.117,44.138S44.138,137.71,44.138,254.234  c0,40.607,11.476,80.331,32.662,113.876l5.297,7.945l-20.303,74.152L137.71,430.786z"
     id="path5" /><path
     style="fill:#FEFEFE;"
     d="M187.145,135.945l-16.772-0.883c-5.297,0-10.593,1.766-14.124,5.297  c-7.945,7.062-21.186,20.303-24.717,37.959c-6.179,26.483,3.531,58.262,26.483,90.041s67.09,82.979,144.772,105.048  c24.717,7.062,44.138,2.648,60.028-7.062c12.359-7.945,20.303-20.303,22.952-33.545l2.648-12.359  c0.883-3.531-0.883-7.945-4.414-9.71l-55.614-25.6c-3.531-1.766-7.945-0.883-10.593,2.648l-22.069,28.248  c-1.766,1.766-4.414,2.648-7.062,1.766c-15.007-5.297-65.324-26.483-92.69-79.448c-0.883-2.648-0.883-5.297,0.883-7.062  l21.186-23.834c1.766-2.648,2.648-6.179,1.766-8.828l-25.6-57.379C193.324,138.593,190.676,135.945,187.145,135.945"
     id="path7" /><g
     id="g9" /><g
     id="g11" /><g
     id="g13" /><g
     id="g15" /><g
     id="g17" /><g
     id="g19" /><g
     id="g21" /><g
     id="g23" /><g
     id="g25" /><g
     id="g27" /><g
     id="g29" /><g
     id="g31" /><g
     id="g33" /><g
     id="g35" /><g
     id="g37" /></svg>